<?xml version="1.0" standalone="no"?>
<svg xmlns:xlink="http://www.w3.org/1999/xlink" id="wave" style="transform:rotate(0deg); transition: 0.3s" viewBox="0 0 1440 490" version="1.1" xmlns="http://www.w3.org/2000/svg"><defs><linearGradient id="sw-gradient-0" x1="0" x2="0" y1="1" y2="0"><stop stop-color="rgba(102, 94, 196, 1)" offset="0%"/><stop stop-color="rgba(0, 173, 151, 1)" offset="100%"/></linearGradient></defs><path style="transform:translate(0, 0px); opacity:1" fill="url(#sw-gradient-0)" d="M0,196L60,179.7C120,163,240,131,360,106.2C480,82,600,65,720,98C840,131,960,212,1080,220.5C1200,229,1320,163,1440,163.3C1560,163,1680,229,1800,236.8C1920,245,2040,196,2160,204.2C2280,212,2400,278,2520,261.3C2640,245,2760,147,2880,155.2C3000,163,3120,278,3240,334.8C3360,392,3480,392,3600,326.7C3720,261,3840,131,3960,130.7C4080,131,4200,261,4320,318.5C4440,376,4560,359,4680,294C4800,229,4920,114,5040,122.5C5160,131,5280,261,5400,318.5C5520,376,5640,359,5760,367.5C5880,376,6000,408,6120,367.5C6240,327,6360,212,6480,171.5C6600,131,6720,163,6840,196C6960,229,7080,261,7200,236.8C7320,212,7440,131,7560,130.7C7680,131,7800,212,7920,204.2C8040,196,8160,98,8280,106.2C8400,114,8520,229,8580,285.8L8640,343L8640,490L8580,490C8520,490,8400,490,8280,490C8160,490,8040,490,7920,490C7800,490,7680,490,7560,490C7440,490,7320,490,7200,490C7080,490,6960,490,6840,490C6720,490,6600,490,6480,490C6360,490,6240,490,6120,490C6000,490,5880,490,5760,490C5640,490,5520,490,5400,490C5280,490,5160,490,5040,490C4920,490,4800,490,4680,490C4560,490,4440,490,4320,490C4200,490,4080,490,3960,490C3840,490,3720,490,3600,490C3480,490,3360,490,3240,490C3120,490,3000,490,2880,490C2760,490,2640,490,2520,490C2400,490,2280,490,2160,490C2040,490,1920,490,1800,490C1680,490,1560,490,1440,490C1320,490,1200,490,1080,490C960,490,840,490,720,490C600,490,480,490,360,490C240,490,120,490,60,490L0,490Z"/></svg>