<?xml version="1.0" standalone="no"?>
<svg xmlns:xlink="http://www.w3.org/1999/xlink" id="wave" style="transform:rotate(0deg); transition: 0.3s" viewBox="0 0 1440 490" version="1.1" xmlns="http://www.w3.org/2000/svg"><defs><linearGradient id="sw-gradient-0" x1="0" x2="0" y1="1" y2="0"><stop stop-color="rgba(102, 94, 196, 1)" offset="0%"/><stop stop-color="rgba(0, 173, 150, 1)" offset="100%"/></linearGradient></defs><path style="transform:translate(0, 0px); opacity:1" fill="url(#sw-gradient-0)" d="M0,49L48,40.8C96,33,192,16,288,40.8C384,65,480,131,576,179.7C672,229,768,261,864,245C960,229,1056,163,1152,171.5C1248,180,1344,261,1440,302.2C1536,343,1632,343,1728,310.3C1824,278,1920,212,2016,204.2C2112,196,2208,245,2304,261.3C2400,278,2496,261,2592,261.3C2688,261,2784,278,2880,269.5C2976,261,3072,229,3168,253.2C3264,278,3360,359,3456,400.2C3552,441,3648,441,3744,375.7C3840,310,3936,180,4032,147C4128,114,4224,180,4320,245C4416,310,4512,376,4608,408.3C4704,441,4800,441,4896,441C4992,441,5088,441,5184,424.7C5280,408,5376,376,5472,302.2C5568,229,5664,114,5760,130.7C5856,147,5952,294,6048,310.3C6144,327,6240,212,6336,163.3C6432,114,6528,131,6624,122.5C6720,114,6816,82,6864,65.3L6912,49L6912,490L6864,490C6816,490,6720,490,6624,490C6528,490,6432,490,6336,490C6240,490,6144,490,6048,490C5952,490,5856,490,5760,490C5664,490,5568,490,5472,490C5376,490,5280,490,5184,490C5088,490,4992,490,4896,490C4800,490,4704,490,4608,490C4512,490,4416,490,4320,490C4224,490,4128,490,4032,490C3936,490,3840,490,3744,490C3648,490,3552,490,3456,490C3360,490,3264,490,3168,490C3072,490,2976,490,2880,490C2784,490,2688,490,2592,490C2496,490,2400,490,2304,490C2208,490,2112,490,2016,490C1920,490,1824,490,1728,490C1632,490,1536,490,1440,490C1344,490,1248,490,1152,490C1056,490,960,490,864,490C768,490,672,490,576,490C480,490,384,490,288,490C192,490,96,490,48,490L0,490Z"/></svg>